<?xml version="1.0" standalone="no"?>
<!DOCTYPE svg PUBLIC "-//W3C//DTD SVG 20010904//EN"
 "http://www.w3.org/TR/2001/REC-SVG-20010904/DTD/svg10.dtd">
<svg version="1.0" xmlns="http://www.w3.org/2000/svg"
 width="585.000000pt" height="538.000000pt" viewBox="0 0 585.000000 538.000000"
 preserveAspectRatio="xMidYMid meet">

<g transform="translate(0.000000,538.000000) scale(0.100000,-0.100000)"
fill="#000000" stroke="none">
<path d="M2625 5174 c-518 -56 -921 -208 -1310 -496 -127 -94 -379 -342 -477
-468 -275 -357 -440 -741 -515 -1195 -25 -158 -25 -546 0 -700 22 -128 30
-147 60 -143 27 4 27 23 4 191 -20 136 -23 416 -6 565 48 451 242 911 536
1277 159 198 389 401 613 543 654 411 1487 480 2244 185 49 -19 125 -52 168
-74 85 -43 106 -47 114 -24 9 23 -13 43 -95 85 -196 98 -506 192 -765 231
-126 20 -473 33 -571 23z"/>
<path d="M4161 5033 c-13 -25 56 -243 115 -362 38 -76 63 -111 128 -177 74
-75 92 -87 219 -149 l139 -67 50 -106 c28 -59 84 -176 124 -259 41 -84 74
-155 74 -158 0 -3 -18 9 -41 27 -23 18 -54 57 -69 88 -108 214 -286 324 -580
360 -47 5 -120 17 -163 25 -95 18 -87 18 -87 -1 0 -18 104 -137 226 -260 108
-109 206 -159 350 -180 248 -37 259 -42 345 -131 65 -67 84 -102 127 -233 36
-111 52 -172 86 -335 42 -195 31 -246 -19 -92 -52 158 -124 254 -249 332 -109
67 -341 137 -359 108 -7 -11 1 -24 118 -184 135 -186 182 -227 341 -305 204
-100 219 -126 218 -374 -5 -612 -274 -1223 -730 -1659 -421 -402 -930 -626
-1499 -661 -179 -10 -159 -10 -315 2 -246 18 -446 60 -644 134 -66 25 -144 60
-173 79 -84 56 -198 161 -236 218 l-35 53 -4 185 -3 185 -37 76 c-39 78 -79
132 -208 282 -43 51 -81 85 -90 84 -33 -7 -40 -215 -11 -353 35 -170 89 -268
226 -414 93 -100 179 -201 170 -201 -18 0 -112 57 -181 108 -114 86 -344 327
-482 503 -7 9 -19 61 -27 115 -9 55 -22 122 -31 149 -41 126 -127 250 -234
338 -72 59 -291 189 -307 183 -18 -7 -16 -32 12 -151 68 -290 171 -429 424
-578 95 -56 111 -70 200 -176 53 -63 115 -136 138 -162 24 -25 43 -48 43 -51
0 -3 -56 23 -125 57 -77 39 -154 70 -202 82 -108 25 -275 23 -417 -5 -147 -29
-157 -41 -68 -86 26 -13 83 -50 127 -82 102 -73 201 -120 295 -140 88 -19 143
-15 292 21 113 26 180 31 220 16 14 -5 62 -37 107 -72 46 -34 118 -82 159
-106 85 -48 85 -50 -2 -27 -85 22 -203 13 -294 -24 -77 -31 -243 -121 -286
-156 -36 -28 -30 -53 16 -60 38 -5 178 -23 291 -37 108 -13 197 7 340 77 160
78 179 79 361 15 284 -99 495 -139 776 -148 842 -26 1630 385 2106 1099 156
235 263 478 334 758 59 236 65 297 65 645 0 375 -12 330 139 525 167 214 190
283 191 570 0 175 -2 195 -17 195 -21 0 -188 -189 -250 -283 -26 -41 -60 -111
-75 -156 -26 -77 -27 -90 -28 -288 0 -113 -1 -205 -3 -203 -2 1 -14 52 -27
111 -14 60 -49 188 -79 284 -69 222 -74 270 -42 350 14 33 47 97 74 142 87
146 97 181 96 348 0 134 -3 153 -32 246 -17 56 -35 128 -38 160 -8 67 -19 94
-38 94 -7 0 -40 -46 -73 -102 -125 -214 -143 -267 -150 -443 -5 -130 -5 -132
42 -355 6 -28 -86 150 -147 285 -25 55 -52 140 -69 219 -52 234 -130 353 -309
476 -47 32 -291 160 -304 160 -3 0 -9 -8 -15 -17z m198 -133 c125 -66 237
-166 294 -261 39 -66 91 -215 85 -243 -2 -10 -37 27 -95 101 -80 103 -231 265
-207 223 16 -29 167 -235 207 -283 22 -26 36 -51 33 -55 -10 -9 -128 54 -187
100 -56 44 -126 132 -164 208 -26 51 -95 242 -95 263 0 13 17 6 129 -53z m847
-346 c33 -108 36 -131 37 -244 1 -143 -8 -174 -93 -327 -47 -82 -50 -86 -50
-53 0 19 4 64 9 100 5 36 12 121 15 190 5 123 5 124 -9 70 -8 -30 -25 -121
-37 -203 -12 -81 -25 -142 -29 -135 -5 7 -16 54 -25 106 -23 129 -15 291 18
387 35 99 112 244 124 233 2 -3 20 -58 40 -124z m-901 -375 c200 -24 336 -77
432 -168 50 -47 109 -128 100 -137 -2 -2 -49 21 -103 52 -89 51 -145 78 -241
120 -18 8 -33 12 -33 10 0 -2 71 -45 158 -97 86 -51 162 -97 167 -101 14 -13
-116 0 -197 19 -73 16 -162 65 -225 123 -67 63 -176 190 -162 190 8 0 55 -5
104 -11z m1287 -417 c-2 -70 -8 -153 -14 -185 -14 -75 -68 -180 -148 -289 -61
-84 -87 -108 -76 -70 17 62 82 268 102 325 47 132 5 55 -66 -123 -40 -100 -74
-179 -77 -176 -8 8 17 241 32 291 8 28 32 80 52 118 40 71 182 251 192 242 3
-3 4 -63 3 -133z m-776 -405 c92 -38 183 -105 235 -174 41 -54 63 -93 56 -99
-2 -2 -31 18 -64 44 -77 62 -123 95 -123 88 0 -3 41 -50 90 -103 50 -53 90
-100 90 -104 0 -14 -108 38 -159 75 -25 19 -63 52 -83 73 -38 39 -158 210
-158 225 0 15 35 8 116 -25z m-4256 -1492 c160 -94 295 -255 341 -407 31 -102
22 -115 -31 -42 -61 82 -204 253 -208 249 -4 -4 119 -185 200 -297 23 -32 39
-60 35 -64 -3 -4 -44 19 -90 49 -113 76 -216 186 -260 279 -50 103 -104 296
-81 287 5 -2 48 -26 94 -54z m873 -525 c33 -41 76 -109 96 -150 34 -72 36 -80
39 -200 3 -80 0 -121 -6 -115 -5 6 -22 44 -37 85 -34 92 -124 284 -131 277 -6
-6 59 -201 97 -291 16 -37 29 -73 29 -80 -1 -6 -21 12 -46 39 -54 59 -126 204
-148 295 -18 77 -31 243 -21 260 9 15 49 -22 128 -120z m-523 -370 c41 -11
129 -46 195 -77 138 -66 130 -61 123 -68 -3 -3 -24 2 -48 10 -78 27 -447 78
-427 59 6 -6 136 -37 272 -64 61 -12 114 -26 119 -30 5 -5 -9 -12 -30 -15 -22
-4 -55 -11 -74 -16 -51 -13 -178 -11 -235 5 -27 7 -75 26 -105 41 -67 34 -234
149 -222 153 4 1 51 9 103 17 114 17 229 12 329 -15z m687 -471 c35 -6 63 -14
63 -19 0 -4 -35 -13 -77 -19 -113 -17 -183 -33 -189 -43 -3 -4 1 -6 8 -4 7 3
85 7 173 10 l160 6 -75 -36 c-119 -56 -182 -74 -262 -74 -89 0 -270 30 -265
44 6 18 201 115 262 130 75 18 121 19 202 5z m80 -45 c-3 -3 -12 -4 -19 -1 -8
3 -5 6 6 6 11 1 17 -2 13 -5z"/>
<path d="M1082 3713 c3 -25 8 -29 50 -35 68 -9 116 -42 142 -97 21 -46 21 -53
21 -796 0 -582 -3 -758 -13 -786 -23 -65 -91 -109 -168 -109 -31 0 -34 -3 -34
-30 l0 -30 271 0 270 0 -3 28 c-3 25 -7 27 -52 30 -106 7 -160 59 -171 165 -3
34 -5 374 -3 754 l3 693 67 -153 c36 -83 137 -314 223 -512 86 -198 174 -398
195 -445 191 -424 233 -518 246 -537 12 -19 24 -23 64 -23 62 0 60 -3 157 228
160 379 404 968 493 1187 51 127 97 234 102 240 5 5 7 -329 6 -751 -3 -706 -4
-762 -21 -787 -25 -38 -58 -57 -114 -65 -43 -6 -48 -10 -48 -32 l0 -25 340 0
340 0 0 25 c0 23 -4 25 -60 30 -70 6 -107 26 -132 73 -15 28 -18 72 -21 357
l-4 325 53 50 52 49 29 -34 c16 -19 145 -188 288 -375 142 -187 287 -375 322
-418 l63 -79 150 1 c368 0 335 -2 335 26 0 23 -4 25 -41 25 -64 0 -116 20
-164 62 -39 34 -211 247 -683 842 l-110 140 196 205 c351 367 466 482 509 508
33 19 62 26 123 30 l80 6 0 33 0 34 -300 0 -300 0 0 -35 c0 -33 2 -35 35 -35
95 0 133 -69 82 -151 -26 -44 -484 -544 -622 -679 l-96 -95 3 415 c3 388 4
417 22 443 25 37 67 57 132 64 54 6 54 6 54 40 l0 33 -247 -2 -248 -3 -68
-165 c-38 -91 -140 -340 -229 -555 -269 -657 -350 -845 -359 -839 -21 13 -182
369 -594 1317 l-108 247 -254 0 -254 0 3 -27z"/>
</g>
</svg>
